/* XPM */
static char *result[] = {
/* columns rows colors chars-per-pixel */
"60 60 233 2 ",
"   c #042D3E",
".  c #043B5C",
"X  c #063559",
"o  c #183A5A",
"O  c #0B2F4A",
"+  c #202F4F",
"@  c #213B5B",
"#  c #1C4A5C",
"$  c #284A5F",
"%  c #054A6B",
"&  c #074868",
"*  c #154A69",
"=  c #095269",
"-  c #18576D",
";  c #0D5571",
":  c #095E76",
">  c #16597A",
",  c #175977",
"<  c #1B4B71",
"1  c #244964",
"2  c #29536A",
"3  c #32596D",
"4  c #2D5B7A",
"5  c #295A78",
"6  c #2D5776",
"7  c #10677D",
"8  c #006473",
"9  c #2C6278",
"0  c #366779",
"q  c #4A6779",
"w  c #556579",
"e  c #0E5E83",
"r  c #0A6D8C",
"t  c #0A6786",
"y  c #126483",
"u  c #156C88",
"i  c #1C6A8A",
"p  c #186A85",
"a  c #0E718C",
"s  c #157789",
"d  c #176D92",
"f  c #0E7B9A",
"g  c #0E7794",
"h  c #147B9C",
"j  c #187697",
"k  c #236D89",
"l  c #396C83",
"z  c #27768C",
"x  c #33778D",
"c  c #2B7293",
"v  c #267A96",
"b  c #357D92",
"n  c #3C7C98",
"m  c #1A7DA4",
"M  c #257DA4",
"N  c #437995",
"B  c #537E91",
"V  c #0F809E",
"C  c #11809E",
"Z  c #27818A",
"A  c #298499",
"S  c #388599",
"D  c #318C8F",
"F  c #1483A3",
"G  c #1C84A4",
"H  c #1987A7",
"J  c #1C92B5",
"K  c #238CA5",
"L  c #2A8CA6",
"P  c #248AAD",
"I  c #2C8BAA",
"U  c #2A84A6",
"Y  c #338BA5",
"T  c #348BA8",
"R  c #2B93AB",
"E  c #3593AB",
"W  c #3993AB",
"Q  c #3A95A7",
"!  c #2395B4",
"~  c #2B9BBD",
"^  c #2896B9",
"/  c #3495B1",
"(  c #3D9BB5",
")  c #3A94BC",
"_  c #379BBE",
"`  c #3A9DBE",
"'  c #3597BA",
"]  c #238FB5",
"[  c #38A4B9",
"{  c #2AA2BD",
"}  c #42879D",
"|  c #46869A",
" . c #568798",
".. c #678193",
"X. c #4394AB",
"o. c #4798AB",
"O. c #5799AB",
"+. c #449CB3",
"@. c #439DBA",
"#. c #4C9EBB",
"$. c #4996B6",
"%. c #549DB3",
"&. c #4C8FAD",
"*. c #669AA8",
"=. c #788EA5",
"-. c #4BA2B6",
";. c #4AA4BB",
":. c #44A1BA",
">. c #53A2B5",
",. c #5DA4B4",
"<. c #53A4BB",
"1. c #5CA6BA",
"2. c #55AABD",
"3. c #5DAABC",
"4. c #59AAB6",
"5. c #41B1BF",
"6. c #5DB1BD",
"7. c #61A5B6",
"8. c #62ACBC",
"9. c #6AAEBF",
"0. c #68A6B7",
"q. c #74A8B8",
"w. c #65B0BE",
"e. c #6BB2BC",
"r. c #78B6BE",
"t. c #349EC2",
"y. c #2E9CC1",
"u. c #49A9C5",
"i. c #56ACC2",
"p. c #5CACC1",
"a. c #58A8C3",
"s. c #5BB0C5",
"d. c #64ADC2",
"f. c #6AAEC1",
"g. c #65AEC8",
"h. c #63B2C4",
"j. c #6CB3C3",
"k. c #65B3C9",
"l. c #6BB4CA",
"z. c #6ABAC8",
"x. c #72B5C6",
"c. c #7CB5C1",
"v. c #7CBCC4",
"b. c #74BBCC",
"n. c #7BBCCC",
"m. c #74B5C9",
"M. c #69BBD9",
"N. c #79BBD1",
"B. c #68BEE1",
"V. c #53CAD6",
"C. c #7DC2CB",
"Z. c #74C1CA",
"A. c #7EC5D4",
"S. c #75C7D7",
"D. c #61C3DE",
"F. c #73C9E0",
"G. c #808CA7",
"H. c #80B5BB",
"J. c #82B5C2",
"K. c #84BBCC",
"L. c #89BECC",
"P. c #88B9C7",
"I. c #97BECD",
"U. c #86BCD6",
"Y. c #93B9D0",
"T. c #83C4CD",
"R. c #88C0CD",
"E. c #96C6CD",
"W. c #83C3D3",
"Q. c #8BC5D4",
"!. c #86CEDD",
"~. c #8DCBDC",
"^. c #86C7D7",
"/. c #93C4D3",
"(. c #94CCD4",
"). c #99CDD4",
"_. c #94CCDC",
"`. c #9CCADB",
"'. c #9AC3D7",
"]. c #8BD1DD",
"[. c #94D1DD",
"{. c #9DD2DD",
"}. c #ACCCDC",
"|. c #A8CBD5",
" X c #A1D4DC",
".X c #A9D6DC",
"XX c #B8D5DC",
"oX c #B1CFD9",
"OX c #8BCBE2",
"+X c #8BD1E7",
"@X c #94D3E3",
"#X c #99D3E2",
"$X c #9BDAE4",
"%X c #9CDBED",
"&X c #94D4E8",
"*X c #80D8F9",
"=X c #91CDE5",
"-X c #ACDBE4",
";X c #A6DBE9",
":X c #B2DDE5",
">X c #BADDE5",
",X c #B9DAE8",
"<X c #B9DFF2",
"1X c #88F8FF",
"2X c #96ECFB",
"3X c #A7E1E9",
"4X c #B5E2EA",
"5X c #BAE6ED",
"6X c #BFE0E7",
"7X c #ABE7F4",
"8X c #BBEBF5",
"9X c #B5EBF7",
"0X c #A8F5FE",
"qX c #B6F7FF",
"wX c #BDF2FD",
"eX c #B3FCFF",
"rX c #C1DCE4",
"tX c #C4E1E6",
"yX c #C4E2EA",
"uX c #CDE5EB",
"iX c #CCE8EC",
"pX c #C5EBF8",
"aX c #D1EDF4",
"sX c #D0EEF8",
"dX c #C6FAFF",
"fX c #D5F3FD",
"gX c #DBFEFF",
"hX c #D5FAFF",
"jX c #D1E8EE",
"kX c #E4FBFF",
"lX c #EBFDFF",
"zX c #E2F2F5",
"xX c None",
/* pixels */
"xXxXxXxXxXxXxXxXxXxXxXxXxXxXxXxXxXxXxXxXxXxXxXxXxXxXxXxXxXxXxXxXxXxXxXxXxXxXxXxXxXxXxXxXxXxXxXxXxXxXxXxXxXxXxXxXxXxXxXxX",
"xXxXxXxXxXxXxXxXxXxXxXxXxXxXxXxXxXxXxXxXxXxXxXxXxXxXxXxXxXxXxXxXxXxXxXxXxXxXxXxXxXxXxXxXxXxXxXxXxXxXxXxXxXxXxXxXxXxXxXxX",
"xXxXxXxXxXxXxXxXxXxXxXxXxXxXxXxXxXxXxXxXxXxXxXxXxXxXxXxXxXxXxXxXxXxXxXxXxXxXxXxXxXxXxXxXxXxXxXxXxXxXxXxXxXxXxXxXxXxXxXxX",
"xXxXxXxXxXxXxXxXxXxXxXxXxXxXxXxXxXxXxXxXxXxXxXxXxXxXxXxXxXxXxXxXxXxXxXxXxXxXxXxXxXxXxXxXxXxXxXxXxXxXxXxXxXxXxXxXxXxXxXxX",
"xXxXxXxXxXxXxXxXxXxXxXxXxXxXxXxXxXxXxXxXxXxXxXxXxXxXxXxXxXxXxXxXxXxXxXxXxXxXxXxXxXxXxXxXxXxXxXxXxXxXxXxXxXxXxXxXxXxXxXxX",
"xXxXxXxXxXxXxXxXxXxXxXxXxXxXxXxXxXxXxXxXxXxXxXxXxXxXxXxXxXxXxXxXxXxXxXxXxXxXxXxXxXxXxXxXxXxXxXxXxXxXxXxXxXxXxXxXxXxXxXxX",
"xXxXxXxXxXxXxXxXxXxXxXxXxXxXxXxXxXxXxXxXxXxXxXxXxXxXxXxXxXxXxXxXxXxXxXxXxXxXxXxXxXxXxXxXxXxXxXxXxXxXxXxXxXxXxXxXxXxXxXxX",
"xXxXxXxXxXxXxXxXxXxXxXxXxXxXxXxXxXxXxXxXxXxXxXxXxXxXxXxXxXxXxXxXxXxXxXxXxXxXxXxXxXxXxXxXxXxXxXxXxXxXxXxXxXxXxXxXxXxXxXxX",
"xXxXxXxXxXxXxXxXxXxXxXxXxXxXxXxXxXxXxXxXxXxXxXxXxXxXxXxXxXxXxXxXxXxXxXxXxXxXxXxXxXxXxXxXxXxXxXxXxXxXxXxXxXxXxXxXxXxXxXxX",
"xXxXxXxXxXxXxXxXxXxXxXxXxXxXxXxXxXxXxXxXxXxXxXxXxXxXxXxXxXxXxXxXxXxXxXxXxXxXxXxXxXxXxXxXxXxXxXxXxXxXxXxXxXxXxXxXxXxXxXxX",
"xXxXxXxXxXxXxXxXxXxXxXxXxXxXxXxXxXxXxXxXxXxXxXxXxXxXxXxXxXxXxXxXxXxXxXxXxXxXxXxXxXxXxXxXxXxXxXxXxXxXxXxXxXxXxXxXxXxXxXxX",
"xXxXxXxXxXxXxXxXxXxXxXxXxXxXxXxXxXxXxXxXxXxXxXxXxXxXxXxXxXxXxXxXxXxXN q xXxXxXxXxXxXxXxXxXxXxXxXxXxXxXxXxXxXxXxXxXxXxXxX",
"xXxXxXxXxXxXxXxXxXxXxXxXxXxXxXxXxXxXxXxXxXxXxXxXxXxXxXxXxXxXxXxXxX* 9 9 xXxXxXxXxXxXxXxXxXxXxXxXxXxXxXxXxXxXxXxXxXxXxXxX",
"xXxXxXxXxXxXxXxXxXxXxXxXxXxXxXxXxXxXxXxXxXxXxXxXxXxX2 2 5 9 O.=X+Xa.F.F.2X|  .xXxXxXxXxXxXxXxXxXxXxXxXxXxXxXxXxXxXxXxXxX",
"xXxXxXxXxXxXxXxXxXxXxXxXxXxXxXxXxXxXxXxXxXl x Q ( I / ( [ / T M.B.*X5.[ V.1X0Xv.xXxXxXxXxXxXxXxXxXxXxXxXxXxXxXxXxXxXxXxX",
"xXxXxXxXxXxXxXxXxXxXxXxXxXxXxXxXxXxXxXxXxXx A R ! ! { { / / L D.F.F.` 5.V.1X2XC.xXxXxXxXxXxXxXxXxXxXxXxXxXxXxXxXxXxXxXxX",
"xXxXxXxXxXxXxXxXxXxXxXxXxXxXxXxXxXxXxXxXS ( [ K K K K L R / / L U s.~.].Z.!.T.3X4Xq w xXxXxXxXxXxXxXxXxXxXxXxXxXxXxXxXxX",
"xXxXxXxXxXxXxXxXxXxXxXxXxXxXxXxXxXxXxX| +.A A R R R E E E :.u.;.u.$.;X.XdX7X9X-X5XgXlX=.xXxXxXxXxXxXxXxXxXxXxXxXxXxXxXxX",
"xXxXxXxXxXxXxXxXxXxXxXxXxXxXxXxXxXxXxX} :.L R I L Y E Q E +.i.i.a.}  X.XdX4X8X-X4XgXhX=.xXxXxXxXxXxXxXxXxXxXxXxXxXxXxXxX",
"xXxXxXxXxXxXxXxXxXxXxXxXxXxXxXxXxX .} >.Y E I R W W +.+.o.;.p.s.g.0.:X>XyX4X4X5X:XgXgX..xXxXxXxXxXxXxXxXxXxXxXxXxXxXxXxX",
"xXxXxXxXxXxXxXxXxXxXxXxXxXxXxXxX*.f.3.Q ( / @.+.+.o.-.-.-.6.z.b.m.L.fXuXyX,X>X>X4X8XqX3 xXxXxXxXxXxXxXxXxXxXxXxXxXxXxXxX",
"xXxXxXxXxXxXxXxXxXxXxXxXxXxX*.e.b.+.-.;.:.@.$.#.a.-.2.2.6.z.A.T.Q.'.kXkXyXyXrX>X8X9XeX# xXxXxXxXxXxXxXxXxXxXxXxXxXxXxXxX",
"xXxXxXxXxXxXxXxXxXxXxXxXxXxX0.3.S.+.-.+.:.+.#.#.;.#.;.4.4.x.T.L.I.:XzXlXXX6XrXrX5X7X0X# xXxXxXxXxXxXxXxXxXxXxXxXxXxXxXxX",
"xXxXxXxXxXxXxXxXxXxXxXxXxXq.].A.<.i.2.5.#.i.$.<.<.<.6.s.e.A.(./.I.jXlXzXiXtXrXrXdX{.].O xXxXxXxXxXxXxXxXxXxXxXxXxXxXxXxX",
"xXxXxXxXxXxXxXxXxXxXxX.. .;X9.d.h.i.6.2.2.a.a.<.2.2.s.s.e.^./.}.|.lXlXzXjXtXuX>XwXx.j.xXxXxXxXxXxXxXxXxXxXxXxXxXxXxXxXxX",
"xXxXxXxXxXxXxXxXxXxXxX.. .%Xh.8.h.6.3.4.1.1.1.<.2.<.2.k.z.K.'.}.oXlXlXlXjXtXrX>XwXj.j.xXxXxXxXxXxXxXxXxXxXxXxXxXxXxXxXxX",
"xXxXxXxXxXxXxXxXxXxXxXJ.Z.z.b.f.9.8.3.3.1.3.3.2.2.2.i.k.1.K.Y.pXfXlXaXaXaXfXsX8XdX,.7.xXxXxXxXxXxXxXxXxXxXxXxXxXxXxXxXxX",
"xXxXxXxXxXxXxXxXxXxX$ [.+Xz.w.j.f.0.0.8.3.3.3.1.1.i.-.2.m.0.`.gXhXtX|.|.oXoX,XwXqXS | xXxXxXxXxXxXxXxXxXxXxXxXxXxXxXxXxX",
"xXxXxXxXxXxXxXxXxXxX1 Q.A.Z.9.f.j.f.8.0.4.8.8.1.3.>.<.w.7.q./.gXgX:X.XE.|.<X-X9XeXb N xXxXxXxXxXxXxXxXxXxXxXxXxXxXxXxXxX",
"xXxXxXxXxXxXxXxXxXxX0 $X&Xe.x.x.j.f.h.8.8.8.8.1.3.<.p.,.O.9.9X-X-XE.(.{.I.|. XqXz.- 4 xXxXxXxXxXxXxXxXxXxXxXxXxXxXxXxXxX",
"xXxXxXxXxXxXxXxXxXxX .%X%Xm.8.b.m.f.k.h.w.8.d.7.d.1.>.4.4.$X-XP.J.P.R.v.'.<X9XC.X.; 6 xXxXxXxXxXxXxXxXxXxXxXxXxXxXxXxXxX",
"xXxXxXxXxXxXxXxXxXO 9 ~.~.W.j.8.l.k.k.z.h.h.d.1.%.7.4.].[.[.(.).).r.r.K.;XJ.K.x Y ; 1 xXxXxXxXxXxXxXxXxXxXxXxXxXxXxXxXxX",
"xXxXxXxXxXxXxXxXxXO 4 =XOXW.j.w.l.k.h.k.k.s.p.3.8.O.8.~.[.[.).).E.H.v.r.7XN.N.b Q = $ xXxXxXxXxXxXxXxXxXxXxXxXxXxXxXxXxX",
"xXxXxXxXxXxXxXxXxX@ X < ; !.^.A.j.w.8.j.8.p.3.4.%.9.~.Q.U.L. X X XH._.&Xl.z k T Q xXxXxXxXxXxXxXxXxXxXxXxXxXxXxXxXxXxXxX",
"xXxXxXxXxXxXxXxXxXo < X . 5 m.Q.v.r.v.T.^.].[.$X#X=XL.L.c./.(._.#X%Xx.d.j v M T X.xXxXxXxXxXxXxXxXxXxXxXxXxXxXxXxXxXxXxX",
"xXxXxXxXxXxXxXxXxXo < X . , U.Q.T.v.r.K.T.!.[.[.#X@XK.K.c.#X_.[.=X=Xg.M.d h h T X.xXxXxXxXxXxXxXxXxXxXxXxXxXxXxXxXxXxXxX",
"xXxXxXxXxXxXxXxXxX6 & > % X y * U.l.g.a.-.%.o.S >.%.n.~._.Q./.;X%X+Xk d m H H / n xXxXxXxXxXxXxXxXxXxXxXxXxXxXxXxXxXxXxX",
"xXxXxXxXxXxXxXxXxX5 c y t y < y c u y u u u u 7 x S 9.x.n._.#Xv.z.c c I m m f ( l xXxXxXxXxXxXxXxXxXxXxXxXxXxXxXxXxXxXxX",
"xXxXxXxXxXxXxXxXxX4 c d r r e t g r t r a a s y A S 1.j.9.$X$Xv.Z.Z z A M m m T 4 xXxXxXxXxXxXxXxXxXxXxXxXxXxXxXxXxXxXxX",
"xXxXxXxXxXxXxXxXxXxXc v m f ] ] H V V C f g g u z i <.o.o.e.b.D D Z Q Y M m g +.3 xXxXxXxXxXxXxXxXxXxXxXxXxXxXxXxXxXxXxX",
"xXxXxXxXxXxXxXxXxXxXxXx j P J J ! ^ J ^ J H U h y i S a.h.S : z Z Q / I I C C E xXxXxXxXxXxXxXxXxXxXxXxXxXxXxXxXxXxXxXxX",
"xXxXxXxXxXxXxXxXxXxXxXxXxX@.t.^ ~ ~ y.y.t.t.` ) I U T #.>.z : y 8 s U U ' P C S xXxXxXxXxXxXxXxXxXxXxXxXxXxXxXxXxXxXxXxX",
"xXxXxXxXxXxXxXxXxXxXxXxXxX&.$.$.) ) ) _ t.t.t.t.P I / #.#.j e : 7 r P ^ ' m C D xXxXxXxXxXxXxXxXxXxXxXxXxXxXxXxXxXxXxXxX",
"xXxXxXxXxXxXxXxXxXxXxXxXxXxXxXxXxXxXxX& & % - ; > , ; > 9 > c c i s d d ] u.5.z xXxXxXxXxXxXxXxXxXxXxXxXxXxXxXxXxXxXxXxX",
"xXxXxXxXxXxXxXxXxXxXxXxXxXxXxXxXxXxXxXxXxXxXxXxXxXxXxXxXxXxXO o . . & & % 7 k 2 xXxXxXxXxXxXxXxXxXxXxXxXxXxXxXxXxXxXxXxX",
"xXxXxXxXxXxXxXxXxXxXxXxXxXxXxXxXxXxXxXxXxXxXxXxXxXxXxXxXxXxXxX+ + o @ o o 0 0 $ xXxXxXxXxXxXxXxXxXxXxXxXxXxXxXxXxXxXxXxX",
"xXxXxXxXxXxXxXxXxXxXxXxXxXxXxXxXxXxXxXxXxXxXxXxXxXxXxXxXxXxXxXxXxXxXxXxXxXxXxXxXxXxXxXxXxXxXxXxXxXxXxXxXxXxXxXxXxXxXxXxX",
"xXxXxXxXxXxXxXxXxXxXxXxXxXxXxXxXxXxXxXxXxXxXxXxXxXxXxXxXxXxXxXxXxXxXxXxXxXxXxXxXxXxXxXxXxXxXxXxXxXxXxXxXxXxXxXxXxXxXxXxX",
"xXxXxXxXxXxXxXxXxXxXxXxXxXxXxXxXxXxXxXxXxXxXxXxXxXxXxXxXxXxXxXxXxXxXxXxXxXxXxXxXxXxXxXxXxXxXxXxXxXxXxXxXxXxXxXxXxXxXxXxX",
"xXxXxXxXxXxXxXxXxXxXxXxXxXxXxXxXxXxXxXxXxXxXxXxXxXxXxXxXxXxXxXxXxXxXxXxXxXxXxXxXxXxXxXxXxXxXxXxXxXxXxXxXxXxXxXxXxXxXxXxX",
"xXxXxXxXxXxXxXxXxXxXxXxXxXxXxXxXxXxXxXxXxXxXxXxXxXxXxXxXxXxXxXxXxXxXxXxXxXxXxXxXxXxXxXxXxXxXxXxXxXxXxXxXxXxXxXxXxXxXxXxX",
"xXxXxXxXxXxXxXxXxXxXxXxXxXxXxXxXxXxXxXxXxXxXxXxXxXxXxXxXxXxXxXxXxXxXxXxXxXxXxXxXxXxXxXxXxXxXxXxXxXxXxXxXxXxXxXxXxXxXxXxX",
"xXxXxXxXxXxXxXxXxXxXxXxXxXxXxXxXxXxXxXxXxXxXxXxXxXxXxXxXxXxXxXxXxXxXxXxXxXxXxXxXxXxXxXxXxXxXxXxXxXxXxXxXxXxXxXxXxXxXxXxX",
"xXxXxXxXxXxXxXxXxXxXxXxXxXxXxXxXxXxXxXxXxXxXxXxXxXxXxXxXxXxXxXxXxXxXxXxXxXxXxXxXxXxXxXxXxXxXxXxXxXxXxXxXxXxXxXxXxXxXxXxX",
"xXxXxXxXxXxXxXxXxXxXxXxXxXxXxXxXxXxXxXxXxXxXxXxXxXxXxXxXxXxXxXxXxXxXxXxXxXxXxXxXxXxXxXxXxXxXxXxXxXxXxXxXxXxXxXxXxXxXxXxX",
"xXxXxXxXxXxXxXxXxXxXxXxXxXxXxXxXxXxXxXxXxXxXxXxXxXxXxXxXxXxXxXxXxXxXxXxXxXxXxXxXxXxXxXxXxXxXxXxXxXxXxXxXxXxXxXxXxXxXxXxX",
"xXxXxXxXxXxXxXxXxXxXxXxXxXxXxXxXxXxXxXxXxXxXxXxXxXxXxXxXxXxXxXxXxXxXxXxXxXxXxXxXxXxXxXxXxXxXxXxXxXxXxXxXxXxXxXxXxXxXxXxX",
"xXxXxXxXxXxXxXxXxXxXxXxXxXxXxXxXxXxXxXxXxXxXxXxXxXxXxXxXxXxXxXxXxXxXxXxXxXxXxXxXxXxXxXxXxXxXxXxXxXxXxXxXxXxXxXxXxXxXxXxX",
"xXxXxXxXxXxXxXxXxXxXxXxXxXxXxXxXxXxXxXxXxXxXxXxXxXxXxXxXxXxXxXxXxXxXxXxXxXxXxXxXxXxXxXxXxXxXxXxXxXxXxXxXxXxXxXxXxXxXxXxX",
"xXxXxXxXxXxXxXxXxXxXxXxXxXxXxXxXxXxXxXxXxXxXxXxXxXxXxXxXxXxXxXxXxXxXxXxXxXxXxXxXxXxXxXxXxXxXxXxXxXxXxXxXxXxXxXxXxXxXxXxX"
};
