/* XPM */
static char *e2d03a4674134bf3cd9e144cf3b36200C0xgoyDTF8dhgxE6[] = {
/* columns rows colors chars-per-pixel */
"60 60 49 1 ",
"  c None",
". c black",
"X c #151415",
"o c #271610",
"O c #281F1D",
"+ c #242324",
"@ c #292829",
"# c #333233",
"$ c #3C3B3C",
"% c #3E3B3E",
"& c #3D3C3D",
"* c #4D2B20",
"= c #503D39",
"- c #764D27",
"; c #484648",
": c gray31",
"> c #524F52",
", c #754D41",
"< c #775F5A",
"1 c #76655F",
"2 c #656365",
"3 c #666466",
"4 c #6E6D6E",
"5 c #716763",
"6 c #736B69",
"7 c #7C6D6A",
"8 c #737273",
"9 c #787778",
"0 c #7E7E7E",
"q c gray50",
"w c #9E6F2E",
"e c #885E51",
"r c #9D6F48",
"t c #9D6F54",
"y c #9C6F61",
"u c #A47363",
"i c #AD7766",
"p c #BD7F6A",
"a c #868686",
"s c #8B8A8B",
"d c #8E8C8E",
"f c #9D9B9D",
"g c gray62",
"h c #B49C97",
"j c #AAA9AA",
"k c #AEAAAE",
"l c #B5B3B5",
"z c #C1BEC1",
"x c #CCC8CC",
/* pixels */
"                          .......                           ",
"                      q33.k99.zfl@.8                        ",
"                    q#xg9$@@@.@+@>3k$@                      ",
"                  ..x:g>>.*******.>>>>..                    ",
"                  xxl.>..*yy*yyyy*.@@.x>@                   ",
"                q.g>>.**yyyy*yyyyyy,o.g>>.                  ",
"               qd3:@o,y*yyyy*yiyyyyye*o@X336                ",
"               &g>.*yyy*y,yy*yiyyyyyy*y*3g>7                ",
"              .x9.y*yyy*y,ry*yiyyyyiy*yy,....               ",
"             .gg9.y*yyy*y,ry*yiyyyyiy*yy,.xxgq              ",
"             xg.@*y*yiy*y,ry*yiyyyyyy*yy,*>>>@              ",
"            qll>O,y*yiy*yety*yyyyyyyy*yy,,@@3;5             ",
"            .g>>oyy*yiy*yyyy*yyyyyyyy*yy,y.gg9.             ",
"           q....,yy*yiy*yyyy*yyyyyyyy*yy,y*....             ",
"           qxxg.,yy*yiy*yyyy*yy,yyyyy*y*,y*.xgg             ",
"           qxg9.,yy*yyy*yyyy*yy,wyyyy*y*-y*.gs>             ",
"           q::@.,yy*yyy*yyyy*yy,wyyyy*y*-y*.:$@             ",
"           qxgg.,yy*yyy*yiyy*yy,wyyyy*y*-y*.xgg             ",
"           qgg>.,yy*yyy*yiyy*yy,wyyyy*y*-yg.g9>             ",
"           q....,yy*yyy*yiyy*yy,wyyyy*yggg>....             ",
"           qxgg.,yy*yyy*yiyy*yy,wyyyy*y92>>.449             ",
"           qgg9.,yy*yyy*yiyy*yy,wyyyy*y>>>>.&s>             ",
"           q....,yw*yyy*yiyy*yy,wyyyy*yy,y>....             ",
"           qxgg.,yw*yyy*yiyy*yy,yyyyy*yy,y*.xgg             ",
"           qggg.,yw*yry*yyyy*yy,yyyyy*yy,y*.gg>             ",
"           q::@.,yr*yry*yyyy*yyyyyyyy*yy,y*.:$@             ",
"           qg4g.,yy*yry*yyyy*yyyyyyyy*yi,y*.ljg             ",
"           q&gg.,yy*yry*yyyy*yyyyyyyy*yp,y*.ggg             ",
"           qggg.,yy*yry*yyyy*yyyyyyyy*yp,y*.xg>             ",
"           q....,yy*yyy*yyyy*yyyyyyyy*yp,y*....             ",
"           qlgg.,yy*yyy*yyyy*yyyyyyyy*yp,y*.&a9             ",
"           qxgg.,yy*yyy*yyyy*yyiyyyyy*yp,y*.g4>             ",
"           qg>>.,yxx>>>>>yyy*yyiyyyyy*yy,y*.g>>             ",
"           q....,yy*hyy*yyyy*yyiyyyyy*yy,y*....             ",
"           qxgg.,yy*hyy>yyyy*yyiyyyyy*yy,y*.lg9             ",
"           qg9>.,yy*<yy=yyyy*yyiyyyyy*yy,y*.g2>             ",
"           q....,yy*y>>*yyyy*yyiyyyyy*yy,y*....             ",
"           qxgg.,yy*yyy*yyyy*yyiyyyy,*yy,y*.ggg             ",
"           qxgg.,py*yyy*yyyy*yyiyyyy-*yy,y*.gg>             ",
"           qgg>.,py*yyy*yyyy*yyiyyyy-*yy,y*.g9>             ",
"           q:@@.,py*yey*yyyy*yyuyyyy-*yy,y*.:@@             ",
"           qg&&.,py*y,w*yyyy*yyyyyyy-*yy,y*.xgg             ",
"           qg&g.,py*y,w*yyyy*yyyyyyy-*yy,y*.ggg             ",
"           q&g>.,py*y,w*y,ry*yyyyyyy,*yy,y*.gg>             ",
"           qg9>.,iy*y,w*y,ry*yyyyyyye*yy,y1.g2>             ",
"           q3::.,yy*y,w*yeyy*yyyyyyyy*y999>.3::             ",
"           qxgg.,yy*y,w*yyyy*yyyyyyyy*yg9>>.ggg             ",
"           qxgg.,yy*y,w*yyyy*yyyyyyyy*y>>>>.g&&             ",
"           qggg.,yy*y,w*yyyy*yyyyyyyy*yy,y>.&9>             ",
"           qg99.,yy*y,w*yyyy*yyiyyyyy*yy,y*.4>>             ",
"           qg>>.,yy*y,y*yyyy*yyiyyyyy*yy,y*.g>>             ",
"           qxxg.,*y*yyy*yyyy*yyiyyyyy*yy,y*.xgg             ",
"           qxgg.,*y*yyy*yyyy*yyiyyyyy*y*-y*.ggg             ",
"           qgg>.,yy*yyy*yyyy*yyiyyyyy*y*-y*.g9>             ",
"           qg9>.,yy*yyy*yyyy*yyiyyyyy*y,,y*.g>>             ",
"           qg>>.,yy*yyy*yyyy*yyyyyyyy*yy,y*.g>>             ",
"           qxgg.*yy*yyy*yyyy*yyyyyyyy*yy*y*.ggg             ",
"           qxg>.**y*yyy*yy,***,yyyyyy*y**y*.gg>             ",
"           qg>>.**,*,,,*,,*****,,,,,,*,****.g2>             ",
"                                                            "
};
