/* XPM */
static char *_925c789fef744cbb69d7f410479380bCOiA3scb55kjX6XT[] = {
/* columns rows colors chars-per-pixel */
"60 60 180 2 ",
"   c #0E0916",
".  c #0E0A19",
"X  c #130714",
"o  c #130915",
"O  c #190916",
"+  c #160719",
"@  c #1B061D",
"#  c #130A1B",
"$  c #1A091D",
"%  c #21081D",
"&  c #170720",
"*  c #1B0723",
"=  c #190722",
"-  c #1C0723",
";  c #1B0724",
":  c #1B0625",
">  c #1C0724",
",  c #1C0725",
"<  c #1D0725",
"1  c #1E0527",
"2  c #1D0626",
"3  c #1C0726",
"4  c #1E0626",
"5  c #1E0726",
"6  c #1E0627",
"7  c #1F0627",
"8  c #1E0727",
"9  c #1F0727",
"0  c #1D0722",
"q  c #170820",
"w  c #150A20",
"e  c #150B21",
"r  c #190820",
"t  c #180920",
"y  c #190920",
"u  c #190821",
"i  c #190A21",
"p  c #1A0B21",
"a  c #1B0822",
"s  c #1B0922",
"d  c #1A0A22",
"f  c #1B0A23",
"g  c #1B0921",
"h  c #1A0D23",
"j  c #1A0824",
"k  c #1A0925",
"l  c #1B0925",
"z  c #1C0824",
"x  c #1C0825",
"c  c #1D0825",
"v  c #1E0927",
"b  c #1E0A26",
"n  c #1B0A23",
"m  c #1F0728",
"M  c #1F0629",
"N  c #1F0729",
"B  c #1E072A",
"V  c #1E0828",
"C  c #1E0928",
"Z  c #1F0A29",
"A  c #1D092A",
"S  c #1C1023",
"D  c #1D1027",
"F  c #1D1129",
"G  c #171330",
"H  c #220524",
"J  c #290627",
"K  c #220925",
"L  c #220529",
"P  c #200628",
"I  c #200728",
"U  c #200629",
"Y  c #210729",
"T  c #21062B",
"R  c #22062B",
"E  c #23062B",
"W  c #25032E",
"Q  c #22072C",
"!  c #24052D",
"~  c #24072D",
"^  c #25052E",
"/  c #25052F",
"(  c #24052E",
")  c #26052F",
"_  c #26052F",
"`  c #25062F",
"'  c #24072E",
"]  c #24052B",
"[  c #2A032D",
"{  c #200829",
"}  c #22082D",
"|  c #23082E",
" . c #24092C",
".. c #250A2F",
"X. c #230C2D",
"o. c #22092B",
"O. c #2A0A2E",
"+. c #20122A",
"@. c #270331",
"#. c #270531",
"$. c #260631",
"%. c #250531",
"&. c #280131",
"*. c #290333",
"=. c #280432",
"-. c #290433",
";. c #2B0136",
":. c #2B0235",
">. c #2C0035",
",. c #2D0137",
"<. c #2C0535",
"1. c #2C0437",
"2. c #2C0333",
"3. c #270B33",
"4. c #240931",
"5. c #290A36",
"6. c #2C0837",
"7. c #2B0934",
"8. c #2E0139",
"9. c #2D0239",
"0. c #2D0538",
"q. c #2E0539",
"w. c #2D013B",
"e. c #2F083B",
"r. c #320135",
"t. c #300A36",
"y. c #30013A",
"u. c #33003E",
"i. c #33013E",
"p. c #35013F",
"a. c #31063C",
"s. c #34013B",
"d. c #3A003D",
"f. c #310A3D",
"g. c #36083F",
"h. c #360140",
"j. c #360042",
"k. c #390042",
"l. c #3C0044",
"z. c #3E004A",
"x. c #420045",
"c. c #44004C",
"v. c #49004D",
"b. c #460051",
"n. c #4B0053",
"m. c #4E005A",
"M. c #530056",
"N. c #53005B",
"B. c #5A005D",
"V. c #550062",
"C. c #5A0063",
"Z. c #5D006B",
"A. c #5F0070",
"S. c #630065",
"D. c #63006B",
"F. c #69006C",
"G. c #650073",
"H. c #6E0072",
"J. c #6D007B",
"K. c #720075",
"L. c #74007B",
"P. c #7A007F",
"I. c #730083",
"U. c #7D0081",
"Y. c #770088",
"T. c #7A008A",
"R. c #7F0091",
"E. c #820086",
"W. c #83008B",
"Q. c #8A008E",
"!. c #850095",
"~. c #8E0092",
"^. c #8C009C",
"/. c #930096",
"(. c #940098",
"). c #9400A4",
"_. c #9B00A0",
"`. c #9800A9",
"'. c #A600B7",
"]. c #AC00BC",
/* pixels */
"o X X X X X X X X o $ X o X X X X O o o o o o O o o       o # # # # # $ $ * 3 3 ~ w.w.-.~ ~ ~ Y ~ ~ ~ ~ ~ @.3 q q # # . ",
"o X X o o X o X X X o O o X o o O X X o o o   o o         o # # # # $ $ f Y ~ $.*.s.*.~ ~ ~ Y Z 3 B  .5.~ ~ Z $ $ #     ",
"X X X X X X X X X X o $ o o o o O o o o o o o o X   o o o # # # O O $ $ f B -.>.w.u.*.$.~ $.B Z 3 Y Q 3.Q Y k $ .       ",
"o o X X X X X o X X X o o o o o o o o o o # S o o O o o O O # $ $ $ f f f k Q *.u.u.&.~ Y ~ 3 * 3 3 3 c ; * $ #         ",
"o o X X X O o X o X X o X O O o O o O O O o o o # o O $ O O # $ $ f X.c 3 B ~ f.0.1.~  .B Y 3 * 3 * k k & $ #   .       ",
"X o o X o O o X X X X o o o O o o o # O o # o o o # O $ $ $ $ h f f c Y $.5.6.a.0.W Y Y 3 3 0 3 * & & $ $ # #       . . ",
"o X X o O o o X O O o o # # o o o o O O O # o o o # $ f f f $ f c c { ~ u.p.h.k.h.>.&.Y 3 3 * ; Q * $ # # # #       . # ",
"o o X o $ o o o o o O # # # O O O o # # O O # # $ f c c Y 3 c 3 { Q *.u.l.c.m.N.N.l.u.@.Q Y 3 $.B * q q # # .   . # # # ",
"o o o o o o o o O O O O # # O O O # # $ O O O O $ c c c ~ Y Y Y 3.6.u.l.b.n.N.m.m.k.u.*.&.~ W @.; q $ $ # # # . # # # # ",
"o o o o o o o o o o O O # # o o # # # $ c c $ $ I 3 z { 6.a.6.1.h.z.b.V.J.J.G.V.n.h.u.p.h.h.w.Q & q $ # . # # # # . . . ",
"o o o o o o o o o o O $ # # # o # # O O $ $ 0 z $ $ f z 7.s.s.k.b.n.n.Z.`.^.G.C.b.l.u.s.u.p.$.; # # # .     . . # # . . ",
"O o o o O o o X o o O O # # o # # # O $ O O O O O O $ $ c ~ p.k.m.V.V.G.].`.G.V.z.k.h.w.w.w.$.* # #   . .   . # # # # . ",
"K O $ $ $ o o o o o O $ O o O O O $ $ $ z 0 $ $ O $ $ $ z ] p.p.n.C.Z.I.'.).G.Z.m.b.b.z.h.w.5.B e w . . . . . . # w w . ",
"O O O O o o o o o o o O $ O $ O O $ * 0 0 0 0 0 $ O $ $ 0 Y ~ _ l.n.Z.J.!.^.^.!.J.b.c.z.w.w.w.$.Z q # # . . . . . w . . ",
"% O O O o O O o O O o o o O $ O O $ z * 0 0 0 K $ $ z $ K ] ~ ~ k.n.J.Y.!.!.`.^.A.z.j.j.w.w.w.4.A q # w . . . . # w # . ",
"o O O O o o o o O $ o o o o O O + @ 0 c z 0 @ 0 K * K I I O.Y -.k.N.J.G.T.!.T.I.m.z.u.h.u.w.Q B A Z k k w w w . q e w # ",
"o O O o o O O O O O O O o O @ O O @ K I 0 @ @ @ I I K 0 0 0 { &.b.D.V.V.Z.J.Y.I.Z.b.l.l.w.$.k q e } A A A e w # q q q w ",
"o O o o o O O O O O @ @ O O @ @ K @ K I I K K K K * @ * 0 0 ] s.N.V.n.n.N.G.R.T.Z.m.c.c.0.Q k # # A A A A q w w w e # . ",
"o o o o O O @ O O O O @ $ + @ @ O O z @ 0 J ] { c $ @ 0 Y _ s.c.V.C.m.n.n.G.J.C.v.l.&.*.Q Y f $ k k A A } w w w e G . . ",
"X X X o O + @ O @ @ K @ z O O O O + + @ K K ] I 0 @ 0 Y 2.k.n.n.n.m.C.N.n.J.L.Z.v.s.$.~ Q ~ B k k k e k A e # . . . . . ",
"X X X X o + + @ @ @ K K K $ @ O + + + @ K K ] I 0 0 I ] 2.s.v.N.n.n.N.N.m.J.J.Z.b.w.$.Q Q Y B Z e q e k A k . . . . . . ",
"X X o o o O @ @ @ @ z @ z K H H % @ + @ 0 0 ] K 0 ] ] ] _ 2.n.V.v.c.b.N.V.D.Z.N.b.p.$.Y B 3 3 * h q q e A e . . . . . . ",
"X X X o o + 0 @ z K ] K K K H J J J [ K @ @ @ K I _ -.-._ p.n.m.k.p.a.l.m.G.Z.N.c.w.@.&.*.*.$.c q k e A A q # . . . . . ",
"o o X X X o + @ z K J J K J @ @ % H J [ O.O.@ J [ 2._ 1.p.v.N.v.p.s.s.s.c.n.v.l.*.~ Q &.Y Y $.Q A Z 4.4.A w # # . . . . ",
"o o + + X X + @ 0 0 K @ @ J @ @ @ K J [ J J J [ 2.r.d.l.M.C.v.k.h.p.a.l.z.l.s.>.] 3 Y 3 f 3 6.$.A 4.5.A q # . . # . . . ",
"+ + o + + + + + @ 0 @ @ @ K J J K H [ d.[ _ r.l.d.n.D.D.N.N.b.c.z.z.l.c.b.h.>.&.Y z 3 Y Y ~ 5.o.Z A A k # # . . # $ # # ",
"X X o o + o + + @ K @ @ @ I J J J [ [ d.r.r.x.x.c.C.K.D.n.v.b.l.v.v.n.N.N.l.&.~ { 3 3 Y Y ~ o.o.A A A e # # # # # $ q $ ",
"X X X o + O + + @ @ K H K J r.r.r.r.d.d.d.x.M.B.M.V.C.C.m.v.x.l.l.l.v.N.D.c.-. .] Y B Q { Y Z c Z 4.k q q $ q q q f c k ",
"o X o o + + + @ K J H [ _ r.c.x.x.v.v.d.x.v.D.S.N.n.l.l.l.l.p.s._ 2.l.n.G.l.g.-.~ ] Y 3 Q Q Q Z Z Z k f q $ f K Y I f $ ",
"X X X X X X + + + @ H [ [ r.c.v.n.B.M.v.M.B.K.F.N.v.d.p.d.l.r.-._ -.s.v.l.s.p.p.s.r.~ Z Q { o.k k Z k k c k f Y ] I 3 $ ",
"o X X X X X + + + 0 H r.r.d.x.M.D.H.F.M.D.K.W.L.B.c.l.l.v.k.>.-.] ~ >.p._ ~ s.p.p.~ Y o.c 3 k k k k Z o.7.Z c ~ c c f f ",
"X X o X X X + @ @ J [ r.d.d.d.x.n.M.B.S.E./.W.H.M.x.l.k.l.r.~ ] Y Y Y 3 I K 1.&.~ Y 3 k c 3 k f Z c {  .Z Z o.c k f f Z ",
"X X O X X + @ @ K J 2.d.s.r.r.s.x.v.M.S.Q.(.U.D.M.l.p.s.p.>.~ Y Y I 3 0 ; 0 ~ Y 3 c Y 3 B B c k Z Z o.o.Z Z X.c f $ f c ",
"X X X X + + @ 0 0 H [ r.[ H H [ r.d.c.M.P._.~.D.v.x.s.>.>.~ Y 3 0 0 * $ f 3 z f $ f c 6.6.$.o.A Z k { { Z k Z c { Z f f ",
"X X X X + O @ H K 0 H [ [ H H J [ r.c.n.D.L.~.H.m.d.s.h.-.I f c * $ f $ $ f O $ $ c o.e.6.3.Z k q h h h k c { Y { { c c ",
"o X X X + + 0 H @ @ K H [ H [ [ r.d.x.v.N.F.C.B.v.r.-.] 3 f $ $ $ $ $ $ # $ $ # $ z Z Z Z Z q # # $ # # q f { K { c c { ",
"O + + + + + 0 H K @ I ] H H r.r.d.v.N.v.C.D.N.v.s.2.] c c k $ $ O O # $ $ # $ $ f f f q f f k # # e # w # # f f f f c Y ",
"@ I 0 @ + + z 0 H I H K K [ [ _ r.l.B.C.D.G.M.d.7.] 0 f h k O O # # # $ # O # # O $ $ $ h f $ # # # # e . # f f f f f Z ",
"K H H 0 + + @ @ H H H ] J H H [ 2.x.N.D.D.D.c.2.O.Y z $ $ $ $ # # # # $ # # # # # $ h $ h f $ # $ . $ # # # $ k f f c k ",
"0 _ I 0 @ @ @ @ @ @ @ @ H t.J [ 2.d.c.N.m.v.r.] ] z f $ $ $ $ # # # $ O # # # # $ $ $ $ $ $ $ # # e # # e # # q k k f f ",
"I I @ @ @ 0 0 0 @ @ K K J r.[ r.d.x.N.C.n.x.] z z z o.b $ # # $ # # O $ O $ # $ $ # # S $ k q # # . . # # $ # $ q q q e ",
"[ I 0 @ @ z $ @ @ 0 ] _ [ d.x.d.x.c.n.N.v.k.~ z b z f f $ $ $ $ D h q $ $ f $ $ $ $ # # $ q # $ # # # # # # # # e w # # ",
"_ 2.K 0 z @ $ $ @ 0 2.[ _ r.l.s.r.r.s.c.v.c.-.{ f f $ $ $ # $ # $ $ h $ $ # $ $ $ h $ # # # # # # # # # # # # # # # # # ",
"_ s.[ I I K @ + @ 0 _ r.r._ 1.&.I ] _ r.c.m.a.{ f f h q $ # # $ h h q $ e h $ $ $ $ $ # # # # # # # $ # # # # # e w e # ",
"[ d.[ [ ] K @ @ @ K [ r.r._ _ J I I ] 2.l.v.s.Y k f h h q # # $ $ q e $ q q $ $ h # # $ # # # # # # $ # # # # # w w w # ",
"[ d.d.r.2.[ ] 0 K J r.r.r.2._ J I J ] 1.l.x.1.I k f $ $ $ h q f $ # $ q c c f f F h $ $ # e # # # # $ e # # e # # # w # ",
"] 2.r.2.[ 2.] 3 _ 1.r.2.[ 2.2.[ ~ ] I 3 I I I 0 f f f f k k k k $ q f Z f q q h $ $ $ $ $ q # # $ h q $ # # # # . . # # ",
"J r.r.[ _ -.r.1.a.2.2._ _ 2.] I K f @ f $ @ f $ f c c K { k q q q k o.Q k q h f f e # # $ q h # $ $ f q D # # e e # # # ",
"2.r.r.2.2.r.2.>.2._ ] ] ] I I K K f $ $ $ $ $ f f z { f f f f $ q f k Z k $ f f q $ # # $ h q $ # h $ $ $ # # # e e e # ",
"_ d.l.d.s.l.p.d.s.r.~ ~ z @ $ $ $ z $ $ $ $ $ $ f * $ $ f $ $ O $ $ $ q $ $ $ $ # # # # $ $ $ F # h # # # # # # # # # e ",
"[ s.x.l.d.x.l.l.s.r._ Y c $ O O O $ O O O O $ f $ f f f $ f $ O # # h h q q e e # $ # $ $ $ # e e # . # # # # # # # # # ",
"I 2.l.c.N.v.n.c.d.s.] 3 Z $ $ O O # o o o o o $ $ $ $ $ $ $ $ O # # $ $ $ $ $ # # e $ $ h $ # # #   # # # . # # # # # . ",
"I 2.r.s.l.c.l.d.s.&.{ { o.b O # o o o o   o o # $ * z f $ $ # # # # # # # # # # # # # # # # # . # . . # . . . # # . .   ",
"Y ] 1.1.&._ ] ] _ ~ K f $ O o o o         o # # O f c f $ O O # o o o # # # # # # # # # # # .       . . . . . .     .   ",
" .] &._ Y I X.f $ $ $ O # # o o o           # # $ c q $ # $ # # o # # # # # # # # # # # $ $ . . # . . # . . . .         ",
"{ ] ~ ] 3 f $ $ $ $ h $ O $ # O o           # # $ $ # # # # o # # o $ # # # # # $ # # # # # # # # # # # . . . . .       ",
"K ] ]  .z f $ $ $ $ h e # # $ # o           # $ $ $ # # # # # # # # h # # # # # $ # o # # # # . # # $ # . . .   .       ",
"3 { { c k f $ O O # $ F # # e $ o o     o     # # # # o   # $ # o   # # # # # o o # # # # # # # # # . . . # # . .       ",
"z $ $ K f $ O # # O O # o o o                 # # # # # # # # o #     # # # # # o o # o o # # # # . # e h . . . . .     ",
"b O O O o # # # h $ O O o o                 . . # e # # # # # # # #   o # #   # # # o # o # # # h # # # .           .   "
};
