/* XPM */
static char *_cc8d49dc2594752fc20a32b74fb711fLqayeJKoIsm5FdZh[] = {
/* columns rows colors chars-per-pixel */
"60 60 228 2 ",
"   c None",
".  c #030103",
"X  c #0B0302",
"o  c #01030B",
"O  c #09080A",
"+  c #120203",
"@  c #140801",
"#  c #1B050B",
"$  c #190C0F",
"%  c #190703",
"&  c #0A0C14",
"*  c #050B17",
"=  c #150512",
"-  c #130D13",
";  c #1C0B14",
":  c #170B18",
">  c #0B141B",
",  c #1A1617",
"<  c #1D120C",
"1  c #280809",
"2  c #261505",
"3  c #391708",
"4  c #270815",
"5  c #2C1C1D",
"6  c #281418",
"7  c #32181D",
"8  c #39290B",
"9  c #2D2119",
"0  c #2B2117",
"q  c #362613",
"w  c #392617",
"e  c #1C1D22",
"r  c #181922",
"t  c #100F21",
"y  c #231422",
"u  c #281D27",
"i  c #371D28",
"p  c #1B2129",
"a  c #292529",
"s  c #382F2C",
"d  c #3C2828",
"f  c #2D3A27",
"g  c #3B352E",
"h  c #2B2333",
"j  c #252A32",
"k  c #292D3B",
"l  c #282639",
"z  c #322E3B",
"x  c #3A2D3E",
"c  c #2E363A",
"v  c #33323C",
"b  c #393538",
"n  c #451B16",
"m  c #43120E",
"M  c #4B271B",
"N  c #433518",
"B  c #4E2F0E",
"V  c #6E341B",
"C  c #6F351C",
"Z  c #462B27",
"A  c #453723",
"S  c #563329",
"D  c #423B3B",
"F  c #453639",
"G  c #543436",
"H  c #4F2B30",
"J  c #75382A",
"K  c #6D3932",
"L  c #623D35",
"P  c #673128",
"I  c #3B443A",
"U  c #5A451B",
"Y  c #53410F",
"T  c #60531F",
"R  c #766719",
"E  c #56452C",
"W  c #434B37",
"Q  c #594A38",
"!  c #5A5F3A",
"~  c #4E5335",
"^  c #685529",
"/  c #694938",
"(  c #655A3B",
")  c #744E3C",
"_  c #5B6338",
"`  c #726633",
"'  c #2E3142",
"]  c #3A3444",
"[  c #343A44",
"{  c #3B3B44",
"}  c #3D3B4B",
"|  c #353646",
" . c #3B3B54",
".. c #2F2E4D",
"X. c #443946",
"o. c #4A3444",
"O. c #3B414C",
"+. c #39434A",
"@. c #3A4554",
"#. c #4B4B47",
"$. c #544B46",
"%. c #484955",
"&. c #554E5B",
"*. c #4B515C",
"=. c #485455",
"-. c #57575C",
";. c #4F5C49",
":. c #695743",
">. c #684B53",
",. c #635A59",
"<. c #77585B",
"1. c #6C4852",
"2. c #556155",
"3. c #6C6B4B",
"4. c #746359",
"5. c #787C57",
"6. c #6D704C",
"7. c #555867",
"8. c #4E5169",
"9. c #615E6F",
"0. c #5B6868",
"q. c #5E6977",
"w. c #666868",
"e. c #777968",
"r. c #636B72",
"t. c #6C6B74",
"y. c #6A6678",
"u. c #7A6876",
"i. c #677275",
"p. c #64707B",
"a. c #6C747D",
"s. c #677575",
"d. c #72747B",
"f. c #747B7F",
"g. c #7C7676",
"h. c #736C67",
"j. c #977409",
"k. c #876816",
"l. c #9B751A",
"z. c #864C38",
"x. c #8E7131",
"c. c #A07225",
"v. c #967A44",
"b. c #98746B",
"n. c #88777B",
"m. c #8D6F6F",
"M. c #7D8857",
"N. c #7A8867",
"B. c #7F897B",
"V. c #9A832D",
"C. c #A88633",
"Z. c #B4953B",
"A. c #A58822",
"S. c #B48B43",
"D. c #A89553",
"F. c #AE944B",
"G. c #959077",
"H. c #A4846C",
"J. c #B2B478",
"K. c #D4AE5E",
"L. c #C2B86A",
"P. c #D7C978",
"I. c #6A7685",
"U. c #747482",
"Y. c #767B84",
"T. c #7D7B83",
"R. c #757D8B",
"E. c #7D7D8D",
"W. c #6F6D82",
"Q. c #867F86",
"!. c #768285",
"~. c #7B8184",
"^. c #74828A",
"/. c #798789",
"(. c #7C8690",
"). c #828D8E",
"_. c #87848C",
"`. c #848494",
"'. c #858B97",
"]. c #8C969D",
"[. c #8C999A",
"{. c #969497",
"}. c #989289",
"|. c #B08E92",
" X c #98A789",
".X c #93A290",
"XX c #A8B383",
"oX c #A8A89A",
"OX c #B1B497",
"+X c #8D99A3",
"@X c #8D92A8",
"#X c #949BA4",
"$X c #9599A8",
"%X c #999BB3",
"&X c #908FA7",
"*X c #A29FB0",
"=X c #9AA3AC",
"-X c #95A3A8",
";X c #96AAA1",
":X c #A8A9AC",
">X c #B7B5A5",
",X c #A6AAB6",
"<X c #A8B6BA",
"1X c #B1B4B6",
"2X c #B4B6BC",
"3X c #B7BCBD",
"4X c #B4ABAC",
"5X c #C8B1AF",
"6X c #EEDC8F",
"7X c #C5C0A2",
"8X c #B3BBC5",
"9X c #B8BACB",
"0X c #AAB8C3",
"qX c #BBC7C7",
"wX c #B9C9D4",
"eX c #C4C8CB",
"rX c #C5CBDC",
"tX c #C7CAD7",
"yX c #C9D6D1",
"uX c #CAD7D7",
"iX c #D3DBDB",
"pX c #CAD0CE",
"aX c #D9E8DE",
"sX c #CCD6E1",
"dX c #D6D5E4",
"fX c #C8CAE3",
"gX c #DBE9E2",
"hX c #EDEFF0",
/* pixels */
"                                                                                                                        ",
"                                                                                                                        ",
"                                                                                                                        ",
"                                                                                                                        ",
"                                                                                                                        ",
"                                                          /.s.                                                          ",
"                                                        ^.<X+X0.{                                                       ",
"                                                        R.^./.r.* &                                                     ",
"                                                        @.p.a.).=XY./.                                                  ",
"                                                        I.q.(.<XsX=Xr.                                                  ",
"                                                      qXwXq.,XsXwX#Xa.).                                                ",
"                                                      ).tX8X-X$X].i.=.=.                                                ",
"                                                      ,.1X8X'.I.Y.*.a a                                                 ",
"                                                    G 1 b t.'.R.E.&.a a D                                               ",
"                                                  ) K n + X.W.R.&.x ; a D                                               ",
"                                              b.K J J P n + 7.7.u ; # d Z                                               ",
"                                            g.1.K J J V K i o * , u Z M n                                               ",
"                                        -X].g.n.m.K C V L 4X#Xd.g.5X5XM m J                                             ",
"                                      /./.!.T._.u.o.<.m.h.}.1X3XeX{.>.G <.b.                                            ",
"                                    ;X[./.Y.Y.E.y.h y.Q.T.t.:XqX1Xw.. F u.|.                                            ",
"                                   XqXeX].a._.E.r.t y.E.U.~.Y.!.^.*.' ] u.b.                                            ",
"                                  3.h.iXeXeX2XY.r l %XrX8X].p.I.I.@.+.Y.$.4.H.                                          ",
"                                  N @ {.4X:X,X*.. %.&X9X9X=X+X$X@XI.7.s.I g 4.                                          ",
"                                  B ) 2 + @ - o a v ' 8.Y.8XrXrXfX@Xq.[ , , s w                                         ",
"                                x.x.v.x.^ 8 X . , r k  .*.r.].=X%XU.O.p . , w w                                         ",
"                                c.S.S.F.x.U % + X . j [ j p *.r.w.{ > o . 5 A 3                                         ",
"                                l.S.C.C.x.Y % X @ < s b X.|  . .X.u O O X 2 M B                                         ",
"                                k.c.Z.k.R     2 q E ( Q g z ' ..l O . X 9 d Z z.                                        ",
"                                  K.V.          8 ^ ` ^ Q }.`.8.q.{.G.E 0 5 H                                           ",
"                              P.6XP.L.          ( 3.^ T ( >X2X@X%XpX7X( 9 6 G                                           ",
"                              J.5.OXXX!   W g g.Q.G.3.~ ! OXeXrXwXuXOX:.5 6 o.H                                         ",
"                              J.N. X XI g #.{.`.W.U.oXoXe.w.w.r.p.0.w.e.b . X.X./ B                                     ",
"                          3.  XXN..XB.I f 2.pX:X@X@X2X4XB.c o o o . c ~.9.] v s w 2 A                                   ",
"                          _ M.XXN.}.3.;.f ;.pXtXtXrX$Xd.f.7.' ' & . O.Y.`.y.: X 2 8 q                                   ",
"                                J.G.5.5.~ I ].+X$X'.`.t.7.} } ] - . v &.8.%.o X N E w                                   ",
"                                D.^ ` ( h.0.a.p.^.].f.-.z } ] a - . , h %.O.p g Q / E                                   ",
"                              A.Z.V.D.` >X2XR.I.+XqXi.. ] ] h O - X = = y.a.b $.:./                                     ",
"                              j.l.F.D.N oXuXwXwX<X0.+.p %.x = = $ $ X = t.).w.$.S M                                     ",
"                                j.C.v.8 g.#X,X0X^.o j O.z y : : $ $ . r %.d._.Q 3                                       ",
"                                  R U q , & o o * +.O.v o y y ; # ; - & o v -.$.S                                       ",
"                                      9 a v c [ | | } z : u i 6 # 6 : * > e 5 G                                         ",
"                                      #.e r j p k } h u a       i = o o o O d                                           ",
"                                        b *.Y.d.w.v r h           : k @.=.{ G                                           ",
"                                        d.].tXdX,X{ h             x 7.R.Y.w.                                            ",
"                                        1X#XtXdX9Xy.y.            _.E.E._.n.                                            ",
"                                          ~.9X9X*X'.T.            y.U.y.u.n.                                            ",
"                                            Y.E.y.                | } o.1.                                              ",
"                                            %.7.%X                u y i                                                 ",
"                                          eXv ]                   6 % 4                                                 ",
"                                          pX] &X                  1 1                                                   ",
"                                          3X{                       1                                                   ",
"                                          hXd.                      7                                                   ",
"                                          w.t.                      i                                                   ",
"                                          o &                     >.d 5                                                 ",
"                                      gXyX!.r                     5 D w.n.                                              ",
"                                    aXyXuX<X=X                    + $.n.}.|.                                            ",
"                                    yXgXiXyXqX                      ,.n.n.|.|.                                          ",
"                                                                    s g Z                                               ",
"                                                                                                                        ",
"                                                                                                                        "
};
