/* XPM */
static char *_d54bdbb0dae4032f897352e8a47623fOCo3rMjXWHjoNSKH[] = {
/* columns rows colors chars-per-pixel */
"60 60 3 1 ",
"  c #2C3353",
". c #1D1F34",
"X c #13101C",
/* pixels */
"         ....            ........             ....XXXXXXXX..",
"         ....            ........             ....XXXXXXXX..",
"         ....            ........             ....XXXXXXXX..",
"         ....            ........             ....XXXXXXXX..",
"         XXXX....        ....XXXX.............XXXXXXXXXXXXXX",
"         XXXX....        ....XXXX.............XXXXXXXXXXXXXX",
"         XXXX....        ....XXXX.............XXXXXXXXXXXXXX",
"         XXXX....        ....XXXX.............XXXXXXXXXXXXXX",
"XXXXXXXXX........XXXXXXXXXXXX.........XXXXXXXX........XXXXXX",
"XXXXXXXXX........XXXXXXXXXXXX.........XXXXXXXX........XXXXXX",
"XXXXXXXXX........XXXXXXXXXXXX.........XXXXXXXX........XXXXXX",
"XXXXXXXXX........XXXXXXXXXXXX.........XXXXXXXX........XXXXXX",
"....             ....XXXX....         XXXX....        ......",
"....             ....XXXX....         XXXX....        ......",
"....             ....XXXX....         XXXX....        ......",
"....             ....XXXX....         XXXX....        ......",
"....         ....XXXXXXXX....         XXXX....            ..",
"....         ....XXXXXXXX....         XXXX....            ..",
"....         ....XXXXXXXX....         XXXX....            ..",
"....         ....XXXXXXXX....         XXXX....            ..",
"....         ....XXXXXXXX....         XXXX....            ..",
"....         ........XXXX.............XXXX........        XX",
"....         ........XXXX.............XXXX........        XX",
"....         ........XXXX.............XXXX........        XX",
"....         ........XXXX.............XXXX........        XX",
"XXXX.....XXXXXXXXXXXXXXXXXXXX....         ....XXXX........XX",
"XXXX.....XXXXXXXXXXXXXXXXXXXX....         ....XXXX........XX",
"XXXX.....XXXXXXXXXXXXXXXXXXXX....         ....XXXX........XX",
"XXXX.....XXXXXXXXXXXXXXXXXXXX....         ....XXXX........XX",
"    XXXXX....        XXXXXXXX....             ....XXXXXXXXXX",
"    XXXXX....        XXXXXXXX....             ....XXXXXXXXXX",
"    XXXXX....        XXXXXXXX....             ....XXXXXXXXXX",
"    XXXXX....        XXXXXXXX....             ....XXXXXXXXXX",
"    XXXXX....            XXXXXXXX.....        ....XXXXXXXX  ",
"    XXXXX....            XXXXXXXX.....        ....XXXXXXXX  ",
"    XXXXX....            XXXXXXXX.....        ....XXXXXXXX  ",
"    XXXXX....            XXXXXXXX.....        ....XXXXXXXX  ",
"....XXXXXXXXX....        ....XXXX.............XXXXXXXXXXXX..",
"....XXXXXXXXX....        ....XXXX.............XXXXXXXXXXXX..",
"....XXXXXXXXX....        ....XXXX.............XXXXXXXXXXXX..",
"....XXXXXXXXX....        ....XXXX.............XXXXXXXXXXXX..",
"XXXX.........XXXX........XXXXXXXX.....XXXXXXXXXXXX........XX",
"XXXX.........XXXX........XXXXXXXX.....XXXXXXXXXXXX........XX",
"XXXX.........XXXX........XXXXXXXX.....XXXXXXXXXXXX........XX",
"XXXX.........XXXX........XXXXXXXX.....XXXXXXXXXXXX........XX",
"....         XXXXXXXX....        XXXXXXXXX....XXXX        XX",
"....         XXXXXXXX....        XXXXXXXXX....XXXX        XX",
"....         XXXXXXXX....        XXXXXXXXX....XXXX        XX",
"....         XXXXXXXX....        XXXXXXXXX....XXXX        XX",
"....         XXXXXXXX....        XXXXXXXXX....XXXX        XX",
"....         XXXX........        XXXXX....    ....          ",
"....         XXXX........        XXXXX....    ....          ",
"....         XXXX........        XXXXX....    ....          ",
"....         XXXX........        XXXXX....    ....          ",
".........XXXXXXXXXXXX....    ....XXXXX        XXXX....      ",
".........XXXXXXXXXXXX....    ....XXXXX        XXXX....      ",
".........XXXXXXXXXXXX....    ....XXXXX        XXXX....      ",
".........XXXXXXXXXXXX....    ....XXXXX        XXXX....      ",
"XXXXXXXXXXXXXXXXXXXXXXXXXXXXXXXXXXXXXX........XXXXXXXX......",
"XXXXXXXXXXXXXXXXXXXXXXXXXXXXXXXXXXXXXX........XXXXXXXX......"
};
